<svg width="58" height="58" viewBox="0 0 58 58" fill="none" xmlns="http://www.w3.org/2000/svg">
<g opacity="0.5">
<path d="M4.28148 25.0745V33.7858C4.276 34.6306 4.8264 35.4736 5.93451 36.1172L24.5915 46.9589C26.8077 48.2462 30.41 48.2462 32.639 46.9589L51.4167 36.1191C52.4956 35.4955 53.0533 34.6891 53.0935 33.8754C53.0972 33.8425 53.0972 33.8114 53.0972 33.7785V25.0671C53.0972 25.0287 53.0953 24.9903 53.0917 24.9519C53.046 24.1492 52.4956 23.3574 51.4441 22.7467L32.7872 11.9014C30.5728 10.6159 26.9705 10.6159 24.7396 11.9032L5.96012 22.7449C4.84651 23.3885 4.28697 24.2315 4.28148 25.0745Z" fill="url(#paint0_linear_4213_34556)"/>
<path d="M28.832 11.1045C27.3972 11.1045 25.969 11.4223 24.8857 12.0479L6.10645 22.8896C5.02328 23.5158 4.51606 24.3129 4.51172 25.0762C4.50741 25.839 5.00469 26.636 6.08105 27.2617L24.7383 38.1025C25.8148 38.7278 27.2384 39.0458 28.6729 39.0459C30.1074 39.0459 31.5349 38.7281 32.6182 38.1025L51.3975 27.2607C52.4817 26.6346 52.9898 25.8375 52.9941 25.0742C52.9985 24.3115 52.5002 23.5145 51.4229 22.8887L32.7656 12.0469C31.6901 11.4218 30.2665 11.1045 28.832 11.1045Z" fill="url(#paint1_linear_4213_34556)" stroke="url(#paint2_linear_4213_34556)" stroke-width="0.333951" stroke-linecap="round" stroke-linejoin="round"/>
</g>
<g opacity="0.2">
<path d="M24.5977 43.1797L5.94251 32.3125" stroke="white" stroke-width="0.791262" stroke-miterlimit="10" stroke-linecap="round"/>
<path d="M51.4185 32.3145L32.6426 43.1817" stroke="white" stroke-width="0.791262" stroke-miterlimit="10" stroke-linecap="round"/>
</g>
<defs>
<linearGradient id="paint0_linear_4213_34556" x1="53.0972" y1="30.4612" x2="4.58699" y2="34.3874" gradientUnits="userSpaceOnUse">
<stop stop-color="#484848"/>
<stop offset="0.288815" stop-color="#171717"/>
<stop offset="0.47112" stop-color="#454545"/>
<stop offset="0.840937" stop-color="#313131"/>
</linearGradient>
<linearGradient id="paint1_linear_4213_34556" x1="9.38205" y1="21.0624" x2="55.5946" y2="27.8218" gradientUnits="userSpaceOnUse">
<stop stop-color="#6A6A6A"/>
<stop offset="1" stop-color="#121212"/>
</linearGradient>
<linearGradient id="paint2_linear_4213_34556" x1="53.1611" y1="25.0751" x2="21.7339" y2="47.8561" gradientUnits="userSpaceOnUse">
<stop stop-color="white" stop-opacity="0.05"/>
<stop offset="1" stop-color="white" stop-opacity="0.7"/>
</linearGradient>
</defs>
</svg>
