<svg width="58" height="58" viewBox="0 0 58 58" fill="none" xmlns="http://www.w3.org/2000/svg">
<path d="M52.8476 24.9835V33.6387C52.8531 34.4781 52.3062 35.3156 51.2053 35.9551L32.6684 46.727C30.4664 48.006 26.8873 48.006 24.6726 46.727L6.01584 35.957C4.94392 35.3374 4.38979 34.5362 4.34983 33.7277C4.34619 33.695 4.34619 33.6642 4.34619 33.6315V24.9762C4.34619 24.938 4.34801 24.8999 4.35164 24.8617C4.39706 24.0642 4.94392 23.2775 5.98858 22.6707L24.5255 11.8952C26.7256 10.618 30.3047 10.618 32.5212 11.897L51.1798 22.6688C52.2863 23.3084 52.8422 24.1459 52.8476 24.9835Z" fill="url(#paint0_linear_4213_34555)"/>
<path d="M28.4551 11.0908C29.8823 11.0908 31.3032 11.4064 32.3818 12.0293L51.04 22.8018C52.1187 23.4252 52.6265 24.2209 52.6309 24.9854C52.6351 25.7492 52.137 26.544 51.0654 27.167L32.5283 37.9385C31.4563 38.5612 30.0393 38.877 28.6123 38.877C27.1854 38.8769 25.7651 38.5614 24.6865 37.9385L6.02832 27.167C4.94884 26.5436 4.43996 25.7477 4.43555 24.9834C4.4312 24.2195 4.9302 23.4239 6.00293 22.8008L24.54 12.0293C25.6111 11.4067 27.0279 11.0908 28.4551 11.0908Z" fill="url(#paint1_linear_4213_34555)" stroke="url(#paint2_linear_4213_34555)" stroke-width="0.306712" stroke-linecap="round" stroke-linejoin="round"/>
<path d="M32.6636 42.9692L51.1986 32.1719" stroke="#AEF5FF" stroke-width="0.726723" stroke-miterlimit="10" stroke-linecap="round"/>
<path d="M6.01465 32.1719L24.6696 42.9692" stroke="#AEF5FF" stroke-width="0.726723" stroke-miterlimit="10" stroke-linecap="round"/>
<path d="M35.3123 28.8981C31.5995 31.0563 25.5372 31.0563 21.7992 28.8981C18.0612 26.7398 18.0411 23.2282 21.7539 21.0699C25.468 18.9116 31.5316 18.9116 35.2696 21.0699C39.0076 23.2282 39.0264 26.741 35.3123 28.8981Z" stroke="#AEF5FF" stroke-width="0.726723" stroke-miterlimit="10" stroke-linecap="round"/>
<g filter="url(#filter0_f_4213_34555)">
<path d="M32.6636 42.9692L51.1986 32.1719" stroke="#62ECFF" stroke-width="1.09008" stroke-miterlimit="10" stroke-linecap="round"/>
<path d="M6.01465 32.1758L24.6696 42.9731" stroke="#62ECFF" stroke-width="1.09008" stroke-miterlimit="10" stroke-linecap="round"/>
<path d="M35.9865 29.2898C31.904 31.663 25.2381 31.663 21.128 29.2898C17.0178 26.9166 16.9957 23.0554 21.0782 20.6822C25.1621 18.3091 31.8293 18.3091 35.9395 20.6822C40.0497 23.0554 40.0704 26.918 35.9865 29.2898Z" stroke="#62ECFF" stroke-width="1.09008" stroke-miterlimit="10" stroke-linecap="round"/>
</g>
<defs>
<filter id="filter0_f_4213_34555" x="1.83611" y="14.7238" width="53.5412" height="32.4274" filterUnits="userSpaceOnUse" color-interpolation-filters="sRGB">
<feFlood flood-opacity="0" result="BackgroundImageFix"/>
<feBlend mode="normal" in="SourceGraphic" in2="BackgroundImageFix" result="shape"/>
<feGaussianBlur stdDeviation="1.81681" result="effect1_foregroundBlur_4213_34555"/>
</filter>
<linearGradient id="paint0_linear_4213_34555" x1="4.34619" y1="30.3355" x2="52.5441" y2="34.2365" gradientUnits="userSpaceOnUse">
<stop stop-color="#675B89"/>
<stop offset="0.288815" stop-color="#2D2A4C"/>
<stop offset="0.47112" stop-color="#8D76C9"/>
<stop offset="0.840937" stop-color="#47386F"/>
</linearGradient>
<linearGradient id="paint1_linear_4213_34555" x1="47.7795" y1="20.9972" x2="1.86445" y2="27.7131" gradientUnits="userSpaceOnUse">
<stop stop-color="#8F6CEE"/>
<stop offset="1" stop-color="#1B1862"/>
</linearGradient>
<linearGradient id="paint2_linear_4213_34555" x1="4.28223" y1="24.9841" x2="35.5071" y2="47.6184" gradientUnits="userSpaceOnUse">
<stop stop-color="white" stop-opacity="0.05"/>
<stop offset="1" stop-color="white" stop-opacity="0.7"/>
</linearGradient>
</defs>
</svg>
