<svg width="37" height="42" viewBox="0 0 37 42" fill="none" xmlns="http://www.w3.org/2000/svg">
<path d="M18.8428 34.8263C19.3251 34.8263 19.7167 35.2191 19.7168 35.7042V40.7003C19.7168 41.1854 19.3251 41.5792 18.8428 41.5792H17.6094C17.1272 41.5792 16.7364 41.1854 16.7363 40.7003V35.7042C16.7364 35.2192 17.1272 34.8264 17.6094 34.8263H18.8428ZM19.7051 25.3517C20.0455 25.3517 20.3679 25.5011 20.5898 25.7609L29.5898 36.2931C29.7931 36.5308 29.891 36.8341 29.8682 37.1466C29.8442 37.4588 29.7019 37.7433 29.4658 37.9474L28.209 39.0333C27.9966 39.2159 27.7267 39.3165 27.4492 39.3165C27.1079 39.3164 26.7849 39.167 26.5635 38.9073L18.9121 29.9532C18.7404 29.7521 18.4902 29.6369 18.2266 29.6368C17.9629 29.6368 17.7129 29.752 17.541 29.9532L9.89551 38.8654C9.67362 39.125 9.3506 39.2736 9.00977 39.2736C8.73172 39.2735 8.46239 39.173 8.25098 38.9904L6.99414 37.9054C6.75774 37.7013 6.61435 37.4162 6.59082 37.1036C6.56737 36.7914 6.66631 36.4887 6.86914 36.2511L15.8623 25.7609C16.0841 25.5012 16.4067 25.3518 16.7471 25.3517H19.7051ZM35.3545 19.0675C35.9985 19.0675 36.5213 19.5936 36.5215 20.2404V21.9064C36.5215 22.5533 35.9986 23.0802 35.3545 23.0802H1.16699C0.523688 23.0802 0 22.5533 0 21.9064V20.2404C0.000198961 19.5936 0.523811 19.0675 1.16699 19.0675H35.3545ZM18.2266 6.51575C21.1664 6.51589 23.5496 8.91262 23.5498 11.8693C23.5498 14.8261 21.1665 17.2236 18.2266 17.2238C15.2864 17.2238 12.9023 14.8262 12.9023 11.8693C12.9025 8.91253 15.2865 6.51575 18.2266 6.51575ZM3.43066 10.0353C3.69931 9.63262 4.24201 9.52518 4.64258 9.79504L10.1729 13.5206C10.574 13.7909 10.6814 14.3372 10.4121 14.7404L9.72754 15.7657C9.4589 16.1678 8.91696 16.2754 8.5166 16.006L2.98633 12.2804C2.58536 12.0103 2.47824 11.4648 2.74707 11.0616L3.43066 10.0353ZM31.8701 9.77063C32.2709 9.5009 32.8136 9.60842 33.082 10.0109L33.7666 11.0372C34.0359 11.4402 33.9281 11.9859 33.5273 12.256L27.9971 15.9816C27.5974 16.2512 27.0545 16.1436 26.7861 15.7413L26.1006 14.7159C25.8312 14.3129 25.939 13.7664 26.3398 13.4962L31.8701 9.77063ZM18.2266 9.66614C17.0165 9.66614 16.0354 10.6524 16.0352 11.8693C16.0352 13.0862 17.0164 14.0734 18.2266 14.0734C19.4365 14.0732 20.417 13.0862 20.417 11.8693C20.4168 10.6525 19.4364 9.66628 18.2266 9.66614Z" fill="white"/>
<path fill-rule="evenodd" clip-rule="evenodd" d="M17.6014 4.56335H18.8511C19.3333 4.56335 19.7244 4.1701 19.7244 3.68496V0.878399C19.7244 0.393258 19.3333 0 18.8511 0H17.6014C17.1191 0 16.728 0.393258 16.728 0.878399V3.68496C16.728 4.1701 17.1191 4.56335 17.6014 4.56335" fill="#FF3278"/>
<path fill-rule="evenodd" clip-rule="evenodd" d="M10.3866 26.7744L9.7024 25.7486C9.4338 25.346 8.89167 25.2382 8.49105 25.5081L2.95998 29.2336C2.55879 29.5039 2.45178 30.0502 2.72096 30.4533L3.40595 31.4787C3.67467 31.8809 4.21656 31.9883 4.61695 31.7186L10.1473 27.9934C10.5483 27.7234 10.6554 27.1775 10.3866 26.7744" fill="#00BEFF"/>
<path fill-rule="evenodd" clip-rule="evenodd" d="M33.5595 29.2778L28.0275 25.5522C27.6278 25.2824 27.0853 25.3901 26.8169 25.7927L26.1329 26.8186C25.8634 27.2216 25.9707 27.7676 26.3716 28.0377L31.9024 31.7628C32.3021 32.0325 32.8446 31.9251 33.1129 31.5229L33.7982 30.4976C34.0677 30.0945 33.9603 29.5481 33.5595 29.2778" fill="#FFDC18"/>
</svg>
